<?xml version="1.0" encoding="UTF-8"?>
<svg id="svg3476" xmlns="http://www.w3.org/2000/svg" viewBox="0 0 181.367 256">
  <g id="layer1">
    <g id="g3013">
      <polygon id="polygon2989" points="16.5055 235.4385 0 50.31 181.367 50.31 164.844 235.4095 90.5725 256 16.5055 235.4385" fill="#264de4"/>
      <polygon id="polygon2991" points="150.6985 223.623 164.8185 65.447 90.6835 65.447 90.6835 240.2615 150.6985 223.623" fill="#2965f1"/>
      <polygon id="polygon2993" points="37.8385 134.1085 39.8735 156.8135 90.6835 156.8135 90.6835 134.1085 37.8385 134.1085" fill="#ebebeb"/>
      <polygon id="polygon2995" points="35.8135 110.858 90.6835 110.858 90.6835 88.1525 90.605 88.1525 33.7495 88.1525 35.8135 110.858" fill="#ebebeb"/>
      <polygon id="polygon2997" points="90.579 216.7285 90.6835 216.6995 90.6835 193.0765 90.584 193.103 65.297 186.275 63.6805 168.1665 51.393 168.1665 40.888 168.1665 44.069 203.817 90.579 216.7285" fill="#ebebeb"/>
      <path id="path2999" d="m42.6835,0h27.5v11.5h-16v11.5h16v11.5h-27.5s0-34.5,0-34.5Z" fill="#fff"/>
      <path id="path3001" d="m75.6835,0h27.5v10h-16v2h16v23h-27.5v-10.5h16v-2h-16V0Z" fill="#fff"/>
      <path id="path3003" d="m108.6835,0h27.5v10h-16v2h16v23h-27.5v-10.5h16v-2h-16V0Z" fill="#fff"/>
      <polygon id="polygon3005" points="147.482 88.1525 90.605 88.1525 90.605 110.858 122.599 110.858 120.533 134.1085 90.605 134.1085 90.605 156.8135 118.564 156.8135 115.9285 186.2605 90.605 193.0955 90.605 216.7175 137.152 203.817 137.4935 199.981 142.829 140.2055 143.383 134.1085 147.482 88.1525" fill="#fff"/>
    </g>
  </g>
</svg>