<?xml version="1.0" encoding="utf-8"?>
<!-- Generator: Adobe Illustrator 27.5.0, SVG Export Plug-In . SVG Version: 6.00 Build 0)  -->
<svg version="1.1" id="react" xmlns="http://www.w3.org/2000/svg" xmlns:xlink="http://www.w3.org/1999/xlink" x="0px" y="0px"
	 viewBox="0 0 800 800" style="enable-background:new 0 0 800 800;" xml:space="preserve">
<style type="text/css">
	.st0{fill:#FFFFFF;}
	.st1{fill:#00D8FF;}
</style>
<rect class="st0" width="800" height="800"/>
<g>
	<ellipse transform="matrix(0.1218 -0.9926 0.9926 0.1218 -45.7374 748.3083)" class="st1" cx="400" cy="400" rx="43.1" ry="43.1"/>
	<path class="st1" d="M400,302c-132.7,0-240.3,43.9-240.3,98c0,54.1,107.6,98,240.3,98c132.7,0,240.3-43.9,240.3-98
		C640.3,345.9,532.7,302,400,302z M562.4,450.8C519.3,468.3,461.7,478,400,478c-61.7,0-119.3-9.7-162.4-27.2
		C201.3,436,179.7,417,179.7,400c0-17,21.7-36,57.9-50.8C280.7,331.7,338.3,322,400,322c61.7,0,119.3,9.7,162.4,27.2
		c36.3,14.8,57.9,33.8,57.9,50.8C620.3,417,598.7,436,562.4,450.8z"/>
	<path class="st1" d="M315.1,351c-66.4,114.9-82.2,230.1-35.3,257.1c46.9,27.1,138.7-44.2,205-159.1
		C551.2,334,567,218.9,520.2,191.9S381.5,236,315.1,351z M525.2,284.8c-6.3,46.1-26.8,100.8-57.6,154.2
		c-30.8,53.4-68,98.5-104.8,127c-31,24-58.2,33.3-72.9,24.8c-14.7-8.5-20.3-36.8-15-75.6c6.3-46.1,26.8-100.8,57.6-154.2
		c30.8-53.4,68-98.5,104.8-127c31-24,58.2-33.3,72.9-24.8C524.9,217.7,530.5,245.9,525.2,284.8z"/>
	<path class="st1" d="M279.8,191.9C233,218.9,248.8,334,315.1,449c66.4,115,158.2,186.2,205,159.1c46.9-27.1,31.1-142.2-35.3-257.1
		C418.5,236,326.7,164.8,279.8,191.9z M289.8,209.2c14.7-8.5,42,0.8,72.9,24.8c36.7,28.5,73.9,73.6,104.8,127
		c30.8,53.4,51.3,108.2,57.6,154.2c5.3,38.8-0.3,67.1-15,75.6c-14.7,8.5-42-0.8-72.9-24.8c-36.7-28.5-73.9-73.6-104.8-127
		c-30.8-53.4-51.3-108.2-57.6-154.2C269.5,245.9,275.1,217.7,289.8,209.2z"/>
</g>
<g>
	<path d="M269.8,673.9c3.5-0.7,8.5-1.1,13.3-1.1c7.4,0,12.2,1.4,15.5,4.4c2.7,2.4,4.2,6,4.2,10.2c0,7.1-4.5,11.8-10.1,13.7v0.2
		c4.1,1.4,6.6,5.2,7.9,10.8c1.8,7.5,3,12.6,4.1,14.7h-7.2c-0.9-1.5-2.1-6.1-3.6-12.8c-1.6-7.4-4.5-10.2-10.7-10.4h-6.5v23.2h-6.9
		V673.9z M276.7,698.3h7.1c7.4,0,12.1-4.1,12.1-10.2c0-6.9-5-9.9-12.3-10c-3.3,0-5.7,0.3-6.8,0.6V698.3z"/>
	<path d="M316.6,708.8c0.2,9.5,6.2,13.4,13.2,13.4c5,0,8-0.9,10.7-2l1.2,5c-2.5,1.1-6.7,2.4-12.8,2.4c-11.8,0-18.9-7.8-18.9-19.4
		c0-11.6,6.8-20.7,18-20.7c12.6,0,15.9,11.1,15.9,18.1c0,1.4-0.2,2.5-0.2,3.3H316.6z M337.1,703.8c0.1-4.5-1.8-11.4-9.7-11.4
		c-7.1,0-10.2,6.5-10.7,11.4H337.1z"/>
	<path d="M373.9,726.8l-0.6-4.8h-0.2c-2.1,3-6.3,5.7-11.8,5.7c-7.8,0-11.8-5.5-11.8-11.1c0-9.3,8.3-14.4,23.1-14.3v-0.8
		c0-3.2-0.9-8.9-8.7-8.9c-3.6,0-7.3,1.1-10,2.9l-1.6-4.6c3.2-2.1,7.8-3.4,12.6-3.4c11.8,0,14.6,8,14.6,15.7v14.4
		c0,3.3,0.2,6.6,0.6,9.2H373.9z M372.8,707.2c-7.6-0.2-16.3,1.2-16.3,8.7c0,4.5,3,6.7,6.6,6.7c5,0,8.2-3.2,9.3-6.4
		c0.2-0.7,0.4-1.5,0.4-2.2V707.2z"/>
	<path d="M418.3,725.4c-1.8,1-5.9,2.2-11.1,2.2c-11.6,0-19.2-7.9-19.2-19.6c0-11.8,8.1-20.4,20.7-20.4c4.1,0,7.8,1,9.7,2l-1.6,5.4
		c-1.7-1-4.3-1.8-8.1-1.8c-8.8,0-13.6,6.5-13.6,14.5c0,8.9,5.7,14.4,13.4,14.4c4,0,6.6-1,8.6-1.9L418.3,725.4z"/>
	<path d="M436,677.3v11.1h10v5.3h-10v20.8c0,4.8,1.3,7.5,5.2,7.5c1.8,0,3.2-0.2,4.1-0.5l0.3,5.2c-1.4,0.6-3.5,1-6.2,1
		c-3.3,0-5.9-1-7.6-2.9c-2-2.1-2.7-5.5-2.7-10v-21h-6v-5.3h6v-9.2L436,677.3z"/>
	<path d="M482,673.2h6.9v35.9c0,14.2-7,18.6-16.2,18.6c-2.5,0-5.6-0.6-7.4-1.3l1-5.6c1.4,0.6,3.5,1,5.8,1c6.2,0,9.9-2.8,9.9-13.3
		V673.2z"/>
	<path d="M499.5,718.4c3.1,1.9,7.6,3.5,12.4,3.5c7.1,0,11.2-3.7,11.2-9.1c0-5-2.9-7.9-10.1-10.7c-8.7-3.1-14.2-7.6-14.2-15.2
		c0-8.4,6.9-14.6,17.3-14.6c5.5,0,9.5,1.3,11.8,2.6l-1.9,5.6c-1.7-1-5.3-2.5-10.2-2.5c-7.3,0-10.1,4.4-10.1,8c0,5,3.3,7.5,10.7,10.3
		c9.1,3.5,13.7,7.9,13.7,15.7c0,8.3-6.1,15.4-18.8,15.4c-5.2,0-10.8-1.5-13.7-3.4L499.5,718.4z"/>
</g>
</svg>
