<?xml version="1.0" encoding="UTF-8"?><svg id="Layer_2" xmlns="http://www.w3.org/2000/svg" viewBox="0 0 480.67 541.54"><defs><style>.cls-1{fill:#00d8ff;}</style></defs><g id="react"><circle class="cls-1" cx="240.33" cy="213.87" r="43.12" transform="translate(-1.22 426.37) rotate(-83)"/><path class="cls-1" d="m240.33,115.87C107.6,115.87,0,159.75,0,213.87s107.6,98,240.33,98,240.33-43.88,240.33-98-107.6-98-240.33-98Zm162.39,148.78c-43.05,17.55-100.72,27.22-162.39,27.22s-119.34-9.67-162.39-27.22c-36.28-14.79-57.94-33.78-57.94-50.78s21.66-35.98,57.94-50.78c43.05-17.56,100.72-27.22,162.39-27.22s119.34,9.67,162.39,27.22c36.28,14.79,57.94,33.78,57.94,50.78s-21.66,35.98-57.94,50.78Z"/><path class="cls-1" d="m155.46,164.87c-66.37,114.95-82.17,230.07-35.3,257.14,46.87,27.06,138.67-44.19,205.04-159.14,66.37-114.95,82.17-230.07,35.29-257.13-46.87-27.06-138.67,44.18-205.04,159.13Zm210.04-66.24c-6.32,46.06-26.79,100.84-57.62,154.24-30.83,53.41-68.04,98.52-104.77,127.02-30.95,24.02-58.22,33.29-72.95,24.79s-20.33-36.75-15-75.57c6.32-46.06,26.79-100.84,57.62-154.25,30.83-53.41,68.04-98.52,104.77-127.02,30.95-24.02,58.22-33.29,72.95-24.79,14.72,8.5,20.33,36.75,15,75.57Z"/><path class="cls-1" d="m120.17,5.74c-46.87,27.06-31.07,142.18,35.3,257.13,66.37,114.95,158.16,186.2,205.04,159.14,46.87-27.06,31.07-142.19-35.3-257.14C258.84,49.92,167.04-21.32,120.17,5.74Zm10,17.32c14.72-8.5,41.99.77,72.95,24.79,36.73,28.51,73.94,73.62,104.77,127.02,30.83,53.4,51.3,108.18,57.62,154.25,5.33,38.82-.28,67.07-15,75.57-14.72,8.5-41.99-.77-72.95-24.79-36.73-28.51-73.94-73.62-104.77-127.02-30.83-53.4-51.3-108.18-57.62-154.24-5.33-38.82.28-67.07,15-75.57Z"/><path d="m110.16,487.8c3.5-.72,8.51-1.11,13.28-1.11,7.39,0,12.16,1.35,15.5,4.37,2.71,2.39,4.21,6.05,4.21,10.18,0,7.08-4.45,11.77-10.1,13.68v.24c4.13,1.43,6.6,5.24,7.87,10.81,1.75,7.47,3.02,12.64,4.14,14.71h-7.16c-.87-1.51-2.07-6.12-3.58-12.8-1.59-7.39-4.45-10.18-10.73-10.42h-6.52v23.22h-6.92v-52.88Zm6.92,24.41h7.08c7.39,0,12.08-4.05,12.08-10.18,0-6.91-5.01-9.94-12.32-10.02-3.34,0-5.72.32-6.84.63v19.56Z"/><path d="m156.93,522.7c.16,9.46,6.2,13.36,13.2,13.36,5.01,0,8.03-.87,10.65-1.99l1.19,5c-2.47,1.12-6.68,2.39-12.8,2.39-11.85,0-18.92-7.8-18.92-19.4s6.84-20.75,18.05-20.75c12.56,0,15.9,11.05,15.9,18.13,0,1.43-.16,2.54-.24,3.26h-27.03Zm20.51-5c.08-4.45-1.83-11.38-9.7-11.38-7.08,0-10.18,6.53-10.73,11.38h20.44Z"/><path d="m214.2,540.67l-.56-4.85h-.24c-2.14,3.02-6.28,5.72-11.77,5.72-7.79,0-11.77-5.48-11.77-11.05,0-9.3,8.27-14.39,23.13-14.31v-.79c0-3.18-.87-8.91-8.74-8.91-3.58,0-7.31,1.11-10.02,2.86l-1.59-4.61c3.18-2.07,7.79-3.42,12.64-3.42,11.77,0,14.63,8.03,14.63,15.74v14.39c0,3.34.16,6.6.64,9.22h-6.36Zm-1.04-19.64c-7.63-.16-16.3,1.19-16.3,8.66,0,4.53,3.02,6.68,6.6,6.68,5.01,0,8.19-3.18,9.3-6.44.24-.71.4-1.51.4-2.23v-6.68Z"/><path d="m258.67,539.24c-1.83.95-5.88,2.23-11.05,2.23-11.61,0-19.16-7.88-19.16-19.64s8.11-20.43,20.67-20.43c4.13,0,7.79,1.04,9.7,1.99l-1.59,5.4c-1.67-.95-4.29-1.82-8.11-1.82-8.83,0-13.6,6.52-13.6,14.54,0,8.91,5.73,14.39,13.36,14.39,3.97,0,6.6-1.04,8.59-1.91l1.19,5.25Z"/><path d="m276.34,491.14v11.05h10.02v5.33h-10.02v20.75c0,4.77,1.35,7.48,5.25,7.48,1.83,0,3.18-.24,4.06-.48l.32,5.24c-1.35.56-3.5.96-6.2.96-3.26,0-5.88-1.04-7.56-2.95-1.99-2.07-2.7-5.48-2.7-10.02v-20.99h-5.96v-5.33h5.96v-9.22l6.84-1.83Z"/><path d="m322.31,487.08h6.92v35.86c0,14.24-7,18.61-16.22,18.61-2.54,0-5.65-.56-7.4-1.27l1.04-5.65c1.43.56,3.5,1.03,5.8,1.03,6.2,0,9.86-2.78,9.86-13.28v-35.3Z"/><path d="m339.82,532.24c3.1,1.91,7.63,3.5,12.41,3.5,7.08,0,11.21-3.74,11.21-9.15,0-5.01-2.86-7.87-10.1-10.65-8.75-3.1-14.15-7.63-14.15-15.19,0-8.35,6.92-14.55,17.33-14.55,5.49,0,9.46,1.28,11.85,2.63l-1.91,5.65c-1.75-.96-5.33-2.55-10.18-2.55-7.31,0-10.1,4.37-10.1,8.03,0,5.01,3.26,7.47,10.65,10.34,9.06,3.5,13.68,7.87,13.68,15.74,0,8.27-6.12,15.43-18.76,15.43-5.17,0-10.81-1.52-13.67-3.42l1.75-5.81Z"/></g></svg>