<?xml version="1.0" encoding="UTF-8"?>
<svg id="Layer_1" data-name="Layer 1" xmlns="http://www.w3.org/2000/svg" viewBox="0 0 565.3408 797.9789">
  <path d="m565.3407,156.8222l-51.5036,576.9751-231.5125,64.1817-230.8742-64.0931L0,156.8222h565.3408,0Z" fill="#e44d26"/>
  <path d="m282.6704,748.9197l187.0737-51.8626,44.0111-493.0527h-231.0848v544.9153Z" fill="#f16529"/>
  <path d="m182.5485,345.5557h100.1219v-70.7745H105.2011l1.6931,18.9872,17.3961,195.036h158.3801v-70.7745h-93.6532l-6.4687-72.4742Zm15.9512,178.6371h-71.0471l9.9147,111.1269,144.9773,40.2438.3258-.0887v-73.6355l-.3102.082-78.8211-21.2831-5.0393-56.4455h0Z" fill="#ebebeb"/>
  <path d="m52.5983,0h35.9668v35.5346h32.9019V0h35.969v107.6078h-35.9668v-36.0332h-32.9019v36.0332h-35.9668V0h-.0022Zm152.133,35.6853h-31.6587V0h99.3108v35.6853h-31.6787v71.9224h-35.9668V35.6853h-.0067ZM288.1441,0h37.5025l23.0693,37.8105L371.7629,0h37.518v107.6078h-35.8205v-53.3363l-24.7446,38.2604h-.6205l-24.7601-38.2604v53.3363h-35.1911V0Zm139.036,0h35.9778v72.0399h50.5795v35.5679h-86.5596V0h.0022Z" fill="#fff"/>
  <path d="m282.4266,488.8045h87.1512l-8.2172,91.7894-78.9363,21.3053v73.6311l145.0925-40.2105,1.0637-11.9579,16.6338-186.3269,1.7263-19.005h-164.5141v70.7745h0Zm0-143.4216v.1729h170.954l1.4183-15.9069,3.2266-35.8803,1.6909-18.9873h-177.2897v70.6039-.0022Z" fill="#fff"/>
</svg>