<?xml version="1.0" encoding="UTF-8"?>
<svg id="Layer_2" data-name="Layer 2" xmlns="http://www.w3.org/2000/svg" viewBox="0 0 181.367 255.9997">
  <g id="Layer_1-2" data-name="Layer 1">
    <path d="m181.367,50.3101l-16.5229,185.0994-74.2715,20.5901-74.0668-20.5617L0,50.3101h181.367,0Z" fill="#e44d26"/>
    <path d="m90.6835,240.261l60.0151-16.6381,14.1192-158.1763h-74.1343v174.8143Z" fill="#f16529"/>
    <path d="m58.5634,110.8577h32.1201v-22.7052h-56.9339l.5432,6.0913,5.5808,62.5695h50.8099v-22.7052h-30.0449l-2.0752-23.2505Zm5.1173,57.3086h-22.7926l3.1807,35.6506,46.5102,12.9106.1045-.0284v-23.623l-.0995.0263-25.2866-6.8278-1.6167-18.1083h0Z" fill="#ebebeb"/>
    <path d="m16.8741,0h11.5385v11.3999h10.5553V0h11.5392v34.5217h-11.5385v-11.5598h-10.5553v11.5598h-11.5385V0h-.0007Zm48.8058,11.4482h-10.1564V0h31.8599v11.4482h-10.1628v23.0734h-11.5385V11.4482h-.0021ZM92.4395,0h12.0312l7.4009,12.13,7.3937-12.13h12.0361v34.5217h-11.4916v-17.1108l-7.9383,12.2743h-.1991l-7.9433-12.2743v17.1108h-11.2897V0Zm44.6042,0h11.5421v23.1111h16.2264v11.4105h-27.7692V0h.0007Z" fill="#fff"/>
    <path d="m90.6053,156.8134h27.959l-2.6361,29.447-25.3236,6.835v23.6216l46.5471-12.8999.3412-3.8362,5.3363-59.7755.5538-6.097h-52.7778v22.7052h0Zm0-46.0111v.0555h54.8438l.455-5.1031,1.0351-11.5108.5424-6.0913h-56.8763v22.6504-.0007Z" fill="#fff"/>
  </g>
</svg>