<?xml version="1.0" encoding="UTF-8"?><svg id="Layer_2" xmlns="http://www.w3.org/2000/svg" viewBox="0 0 254.97 357.42"><defs><style>.cls-1{fill:#fff;}.cls-2{fill:#ffd83a;}.cls-3{fill:#dab92d;}</style></defs><g id="_web_shield_java"><polygon class="cls-3" points="127.33 357.42 23.2 328.51 0 68.25 254.97 68.25 231.74 328.47 127.33 357.42"/><polygon class="cls-2" points="211.85 311.9 231.71 89.53 127.49 89.53 127.49 335.29 211.85 311.9"/><polygon class="cls-1" points="133.24 121.45 133.24 217.98 165.16 217.98 165.53 217.98 161.82 259.37 133.24 267.09 133.24 300.25 191.66 284.05 200.42 186.06 165.16 186.06 165.16 153.37 203.22 153.37 203.32 153.37 206.18 121.45 133.24 121.45"/><polygon class="cls-1" points="89.41 121.45 94.23 261.19 84.41 258.86 82.33 233.94 56.33 233.94 60.8 284.05 119.24 300.28 119.24 121.45 89.41 121.45"/><polygon points="169.55 0 128.58 0 128.58 12.01 148.63 32.89 128.58 32.89 128.58 44.91 169.55 44.91 169.55 32.89 150.38 12.01 169.55 12.01 169.55 0"/><polygon points="106.43 31.3 100.43 31.3 100.43 28.33 85.42 28.33 85.42 31.3 85.42 41.82 85.42 44.91 121.44 44.91 121.44 0 106.43 0 106.43 31.3"/></g></svg>