<?xml version="1.0" encoding="UTF-8"?>
<svg id="svg2" xmlns="http://www.w3.org/2000/svg" xmlns:xlink="http://www.w3.org/1999/xlink" viewBox="0 0 111.1614 147.2236">
  <defs>
    <linearGradient id="linear-gradient" x1="105.0095" y1="3.218" x2="214.0259" y2="-90.5759" gradientTransform="translate(-61.7992 5.028) scale(.5625 -.568)" gradientUnits="userSpaceOnUse">
      <stop offset="0" stop-color="#5a9fd4"/>
      <stop offset="1" stop-color="#306998"/>
    </linearGradient>
    <linearGradient id="linear-gradient-2" x1="256.1723" y1="-147.3439" x2="217.2426" y2="-92.2651" gradientTransform="translate(-61.7992 5.028) scale(.5625 -.568)" gradientUnits="userSpaceOnUse">
      <stop offset="0" stop-color="#ffd43b"/>
      <stop offset="1" stop-color="#ffe873"/>
    </linearGradient>
    <radialGradient id="radial-gradient" cx="-453.9046" cy="-31.7395" fx="-453.9046" fy="-31.7395" r="29.0369" gradientTransform="translate(22.3421 18.7878) rotate(-90) scale(.2399 -1.0547)" gradientUnits="userSpaceOnUse">
      <stop offset="0" stop-color="#b8b8b8" stop-opacity=".498"/>
      <stop offset="1" stop-color="#7f7f7f" stop-opacity="0"/>
    </radialGradient>
  </defs>
  <path id="path1948" d="m54.9188.0009c-4.5837.0213-8.9609.4122-12.8125,1.0938-11.3462,2.0045-13.4062,6.2001-13.4062,13.9375v10.2188h26.8125v3.4062H18.6375c-7.7925,0-14.6158,4.6837-16.75,13.5938-2.4618,10.213-2.571,16.586,0,27.25,1.9059,7.9379,6.4575,13.5938,14.25,13.5938h9.2188v-12.25c0-8.8499,7.6571-16.6562,16.75-16.6562h26.7812c7.4549,0,13.4062-6.1382,13.4062-13.625V15.0322c0-7.2663-6.13-12.7248-13.4062-13.9375C64.2815.3279,59.5024-.0204,54.9188.0009Zm-14.5,8.2188c2.7695,0,5.0312,2.2986,5.0312,5.125,0,2.8163-2.2617,5.0938-5.0312,5.0938-2.7795,0-5.0312-2.2774-5.0312-5.0938,0-2.8264,2.2518-5.125,5.0312-5.125Z" fill="url(#linear-gradient)"/>
  <path id="path1950" d="m85.6375,28.6572v11.9062c0,9.2308-7.8259,17-16.75,17h-26.7812c-7.3358,0-13.4062,6.2785-13.4062,13.625v25.5312c0,7.2663,6.3186,11.5403,13.4062,13.625,8.4873,2.4956,16.6262,2.9466,26.7812,0,6.7502-1.9544,13.4062-5.8876,13.4062-13.625v-10.2188h-26.7812v-3.4062h40.1875c7.7925,0,10.6963-5.4354,13.4062-13.5938,2.7993-8.3989,2.6802-16.4758,0-27.25-1.9258-7.7574-5.6039-13.5938-13.4062-13.5938h-10.0625Zm-15.0625,64.6562c2.7795,0,5.0312,2.2774,5.0312,5.0938,0,2.8264-2.2518,5.125-5.0312,5.125-2.7695,0-5.0312-2.2987-5.0312-5.125,0-2.8163,2.2617-5.0938,5.0312-5.0938Z" fill="url(#linear-gradient-2)"/>
  <ellipse id="path1894" cx="55.8168" cy="127.7008" rx="35.931" ry="6.9673" fill="url(#radial-gradient)" isolation="isolate" opacity=".4438"/>
  <text transform="translate(22.1196 137.6238)" font-family="SourceSansPro-Regular, &apos;Source Sans Pro&apos;" font-size="24"><tspan x="0" y="0">Python</tspan></text>
</svg>