<?xml version="1.0" encoding="UTF-8"?>
<svg id="Layer_1" data-name="Layer 1" xmlns="http://www.w3.org/2000/svg" viewBox="0 0 2500.0003 3087.9258">
  <path d="m1732.2361,1657.5488c92.2559-9.5508,162.2461-89.082,159.0624-184.5312-3.1738-95.4394-82.7149-171.7968-178.1543-171.7968h-6.3574c-98.6329,3.1836-174.9805,85.8985-171.7968,184.5215,3.1836,47.7245,22.2656,89.082,50.8985,117.7149-108.1641,213.1641-273.5938,369.0527-521.7382,499.4921-168.6133,89.082-343.584,120.8985-518.5547,98.6329-143.1641-19.0918-254.5117-82.7149-324.5117-187.7148-101.7969-155.8886-111.3379-324.5117-25.4394-493.125,60.4492-120.8985,155.8789-209.9805,216.3281-254.5215-12.7246-41.3574-31.8164-111.3477-41.3574-162.2461C-90.6837,1438.0275-42.9591,1889.7951,97.0214,2102.9493c104.9805,159.0821,318.1347,257.7052,553.5547,257.7052,63.623,0,127.2461-6.3671,190.8789-22.2656,407.2168-79.5411,715.8107-321.3379,890.7813-680.8399h-.0001Zm559.9219-394.502c-241.7871-283.1543-598.0957-439.043-1005.3125-439.043h-50.8984c-28.6328-57.2656-89.082-95.4492-155.8886-95.4492h-6.3672c-98.6133,3.1836-174.9609,85.8985-171.7871,184.5313,3.1836,95.4395,82.7149,171.7968,178.1543,171.7968h6.3574c69.9902-3.1836,130.4395-47.7246,155.8886-108.1738h57.2656c241.7871,0,470.8399,69.9902,677.6367,206.7969,159.0624,104.9902,273.5938,241.7969,337.2169,407.2266,54.082,133.623,50.8985,264.0624-6.3671,375.42-89.0723,168.6133-238.5937,260.879-435.8399,260.879-127.2559,0-248.1446-38.1836-311.7773-66.8164-34.9902,31.8164-98.623,82.7149-143.1641,114.5411,136.8067,63.623,276.7871,98.623,410.4005,98.623,305.4102,0,531.289-168.623,617.1875-337.2364,92.2559-184.5312,85.8887-502.6758-152.705-773.0956l-.0003-.0003Zm-1616.1328,448.5743c3.1836,95.4492,82.7149,171.7968,178.1543,171.7968h6.3672c98.623-3.1738,174.9707-85.8985,171.7871-184.5215-3.1738-95.4492-82.7149-171.7968-178.1543-171.7968h-6.3574c-6.3672,0-15.9179,0-22.2656,3.1738-130.4395-216.3379-184.5215-451.7578-165.4297-706.2793,12.7149-190.8886,76.3477-356.3281,187.6953-493.1348,92.2558-117.7149,270.4102-174.9805,391.3086-178.1543,337.2168-6.3672,480.371,413.584,489.9218,582.207,41.3574,9.541,111.3477,31.8164,159.0723,47.7246C1849.9412,267.2461,1531.8064,0,1226.406,0c-286.3281,0-550.3809,206.7969-655.3711,512.2168-146.3379,407.2266-50.8984,798.5449,127.2558,1107.1484-15.8984,22.2656-25.4492,57.2656-22.2656,92.2656v-.0097Z" fill="#764abc"/>
  <text transform="translate(469.4119 2847.9297)" font-family="SourceSansPro-Regular, &apos;Source Sans Pro&apos;" font-size="600"><tspan x="0" y="0" letter-spacing="-.01em">R</tspan><tspan x="335.998" y="0" letter-spacing="0em">edux</tspan></text>
</svg>