<?xml version="1.0" encoding="utf-8"?>
<!-- Generator: Adobe Illustrator 27.5.0, SVG Export Plug-In . SVG Version: 6.00 Build 0)  -->
<svg version="1.1"
	 id="svg3476" xmlns:rdf="http://www.w3.org/1999/02/22-rdf-syntax-ns#" xmlns:svg="http://www.w3.org/2000/svg" xmlns:dc="http://purl.org/dc/elements/1.1/" xmlns:inkscape="http://www.inkscape.org/namespaces/inkscape" xmlns:cc="http://creativecommons.org/ns#" xmlns:sodipodi="http://sodipodi.sourceforge.net/DTD/sodipodi-0.dtd" inkscape:version="0.92.4 (5da689c313, 2019-01-14)" sodipodi:docname="w3_css-official.svg"
	 xmlns="http://www.w3.org/2000/svg" xmlns:xlink="http://www.w3.org/1999/xlink" x="0px" y="0px" viewBox="0 0 256 256"
	 style="enable-background:new 0 0 256 256;" xml:space="preserve">
<style type="text/css">
	.st0{fill:#264DE4;}
	.st1{fill:#2965F1;}
	.st2{fill:#EBEBEB;}
	.st3{fill:#FFFFFF;}
</style>
<sodipodi:namedview  bordercolor="#666666" borderopacity="1.0" fit-margin-bottom="0" fit-margin-left="0" fit-margin-right="0" fit-margin-top="0" id="base" inkscape:current-layer="layer1" inkscape:cx="-678.633" inkscape:cy="244.57143" inkscape:document-units="px" inkscape:pageopacity="0.0" inkscape:pageshadow="2" inkscape:window-height="1016" inkscape:window-maximized="1" inkscape:window-width="1850" inkscape:window-x="70" inkscape:window-y="27" inkscape:zoom="0.35" pagecolor="#ffffff" showgrid="false" units="px">
	</sodipodi:namedview>
<g id="layer1" transform="translate(-193.633,-548.36217)" inkscape:groupmode="layer" inkscape:label="Calque 1">
	<g id="g3013" transform="matrix(0.46875001,0,0,0.46875001,194.74253,548.36217)">
		<polygon id="polygon2989" class="st0" points="115,502.3 79.8,107.3 466.7,107.3 431.4,502.2 273,546.1 		"/>
		<polygon id="polygon2991" class="st1" points="401.3,477.1 431.4,139.6 273.2,139.6 273.2,512.6 		"/>
		<polygon id="polygon2993" class="st2" points="160.5,286.1 164.8,334.5 273.2,334.5 273.2,286.1 		"/>
		<polygon id="polygon2995" class="st2" points="156.2,236.5 273.2,236.5 273.2,188.1 273.1,188.1 151.8,188.1 		"/>
		<polygon id="polygon2997" class="st2" points="273,462.4 273.2,462.3 273.2,411.9 273,412 219.1,397.4 215.6,358.8 189.4,358.8 
			167,358.8 173.8,434.8 		"/>
		<path id="path2999" inkscape:connector-curvature="0" class="st3" d="M170.8,0h58.7v24.5h-34.1v24.5h34.1v24.5h-58.7V0z"/>
		<path id="path3001" inkscape:connector-curvature="0" class="st3" d="M241.2,0h58.7v21.3h-34.1v4.3h34.1v49.1h-58.7V52.3h34.1V48
			h-34.1V0z"/>
		<path id="path3003" inkscape:connector-curvature="0" class="st3" d="M311.6,0h58.7v21.3h-34.1v4.3h34.1v49.1h-58.7V52.3h34.1V48
			h-34.1V0z"/>
		<polygon id="polygon3005" class="st3" points="394.4,188.1 273.1,188.1 273.1,236.5 341.3,236.5 336.9,286.1 273.1,286.1 
			273.1,334.5 332.7,334.5 327.1,397.4 273.1,411.9 273.1,462.3 372.4,434.8 373.1,426.6 384.5,299.1 385.7,286.1 		"/>
	</g>
</g>
</svg>
