<svg id="visual" viewBox="0 0 960 200" width="960" height="200" xmlns="http://www.w3.org/2000/svg" xmlns:xlink="http://www.w3.org/1999/xlink" version="1.1"><rect x="0" y="0" width="960" height="200" fill="#00003b"></rect><path d="M0 163L40 161.3C80 159.7 160 156.3 240 155.8C320 155.3 400 157.7 480 159C560 160.3 640 160.7 720 154.8C800 149 880 137 920 131L960 125L960 201L920 201C880 201 800 201 720 201C640 201 560 201 480 201C400 201 320 201 240 201C160 201 80 201 40 201L0 201Z" fill="#ffffff" stroke-linecap="round" stroke-linejoin="miter"></path></svg>